{
    "streams": [
        {
            "index": 0,
            "codec_name": "mpeg2video",
            "codec_long_name": "MPEG-2 video",
            "profile": "Main",
            "codec_type": "video",
            "codec_tag_string": "[2][0][0][0]",
            "codec_tag": "0x0002",
            "width": 1280,
            "height": 720,
            "coded_width": 0,
            "coded_height": 0,
            "closed_captions": 0,
            "film_grain": 0,
            "has_b_frames": 1,
            "sample_aspect_ratio": "1:1",
            "display_aspect_ratio": "16:9",
            "pix_fmt": "yuv420p",
            "level": 4,
            "color_range": "tv",
            "chroma_location": "left",
            "field_order": "progressive",
            "refs": 1,
            "id": "0x100",
            "r_frame_rate": "60000/1001",
            "avg_frame_rate": "60000/1001",
            "time_base": "1/90000",
            "start_pts": 231240,
            "start_time": "2.569333",
            "duration_ts": 161152991,
            "duration": "1790.588789",
            "extradata_size": 86,
            "disposition": {
                "default": 0,
                "dub": 0,
                "original": 0,
                "comment": 0,
                "lyrics": 0,
                "karaoke": 0,
                "forced": 0,
                "hearing_impaired": 0,
                "visual_impaired": 0,
                "clean_effects": 0,
                "attached_pic": 0,
                "timed_thumbnails": 0,
                "captions": 0,
                "descriptions": 0,
                "metadata": 0,
                "dependent": 0,
                "still_image": 0
            },
            "side_data_list": [
                {
                    "side_data_type": "CPB properties",
                    "max_bitrate": 24000000,
                    "min_bitrate": 0,
                    "avg_bitrate": 0,
                    "buffer_size": 7995392,
                    "vbv_delay": -1
                }
            ]
        },
        {
            "index": 1,
            "codec_name": "ac3",
            "codec_long_name": "ATSC A/52A (AC-3)",
            "codec_type": "audio",
            "codec_tag_string": "[129][0][0][0]",
            "codec_tag": "0x0081",
            "sample_fmt": "fltp",
            "sample_rate": "48000",
            "channels": 2,
            "channel_layout": "stereo",
            "bits_per_sample": 0,
            "id": "0x101",
            "r_frame_rate": "0/0",
            "avg_frame_rate": "0/0",
            "time_base": "1/90000",
            "start_pts": 126000,
            "start_time": "1.400000",
            "duration_ts": 161251200,
            "duration": "1791.680000",
            "bit_rate": "192000",
            "disposition": {
                "default": 0,
                "dub": 0,
                "original": 0,
                "comment": 0,
                "lyrics": 0,
                "karaoke": 0,
                "forced": 0,
                "hearing_impaired": 0,
                "visual_impaired": 0,
                "clean_effects": 0,
                "attached_pic": 0,
                "timed_thumbnails": 0,
                "captions": 0,
                "descriptions": 0,
                "metadata": 0,
                "dependent": 0,
                "still_image": 0
            }
        },
        {
            "index": 2,
            "codec_name": "ac3",
            "codec_long_name": "ATSC A/52A (AC-3)",
            "codec_type": "audio",
            "codec_tag_string": "[129][0][0][0]",
            "codec_tag": "0x0081",
            "sample_fmt": "fltp",
            "sample_rate": "48000",
            "channels": 6,
            "channel_layout": "5.1(side)",
            "bits_per_sample": 0,
            "id": "0x102",
            "r_frame_rate": "0/0",
            "avg_frame_rate": "0/0",
            "time_base": "1/90000",
            "start_pts": 130800,
            "start_time": "1.453333",
            "duration_ts": 161254080,
            "duration": "1791.712000",
            "bit_rate": "448000",
            "disposition": {
                "default": 0,
                "dub": 0,
                "original": 0,
                "comment": 0,
                "lyrics": 0,
                "karaoke": 0,
                "forced": 0,
                "hearing_impaired": 0,
                "visual_impaired": 0,
                "clean_effects": 0,
                "attached_pic": 0,
                "timed_thumbnails": 0,
                "captions": 0,
                "descriptions": 0,
                "metadata": 0,
                "dependent": 0,
                "still_image": 0
            },
            "tags": {
                "language": "eng"
            }
        }
    ],
    "chapters": [

    ],
    "format": {
        "filename": "/Users/double/Downloads/Cyberchase (2002) - S03E08 - Be Reasonable - EXAMPLE.ts",
        "nb_streams": 3,
        "nb_programs": 1,
        "format_name": "mpegts",
        "format_long_name": "MPEG-TS (MPEG-2 Transport Stream)",
        "start_time": "1.400000",
        "duration": "1791.765333",
        "size": "1304861188",
        "bit_rate": "5826036",
        "probe_score": 50
    }
}
